<svg xmlns="http://www.w3.org/2000/svg" width="38" height="38" viewBox="0 0 38 38">
  <g id="Group_559" data-name="Group 559" transform="translate(-5827 -5565)">
    <rect id="Rectangle_359" data-name="Rectangle 359" width="38" height="38" transform="translate(5827 5565)" fill="none"/>
    <g id="calendar_1_" data-name="calendar (1)" transform="translate(5830 5568)">
      <path id="Path_508" data-name="Path 508" d="M30.988,18.789V2.957a.964.964,0,0,0-.964-.964H25.138V.964a.964.964,0,0,0-1.929,0V1.993H19.352V.964a.964.964,0,1,0-1.929,0V1.993H13.565V.964a.964.964,0,1,0-1.929,0V1.993H7.779V.964a.964.964,0,0,0-1.929,0V1.993H.964A.964.964,0,0,0,0,2.957V28.1a.964.964,0,0,0,.964.964h16.06a8.676,8.676,0,1,0,13.964-10.27ZM5.85,3.922v.964a.964.964,0,0,0,1.929,0V3.922h3.857v.964a.964.964,0,0,0,1.929,0V3.922h3.857v.964a.964.964,0,1,0,1.929,0V3.922h3.857v.964a.964.964,0,0,0,1.929,0V3.922H29.06V7.779H1.929V3.922ZM1.929,27.131V9.708H29.06v7.317a8.669,8.669,0,0,0-12.1,2.5.959.959,0,0,0-.433-.1H14.594a.964.964,0,1,0,0,1.929h1.461a8.607,8.607,0,0,0-.443,1.929H14.594a.964.964,0,0,0,0,1.929h1.018a8.593,8.593,0,0,0,.443,1.929Zm22.309,3.857a6.751,6.751,0,1,1,6.751-6.751A6.758,6.758,0,0,1,24.238,30.988Zm0,0" fill="#f6ac00"/>
      <path id="Path_509" data-name="Path 509" d="M366.822,305.857h-2.893v-2.893a.964.964,0,0,0-1.929,0v3.857a.964.964,0,0,0,.964.964h3.857a.964.964,0,1,0,0-1.929Zm0,0" transform="translate(-338.727 -282.584)" fill="#f6ac00"/>
      <path id="Path_510" data-name="Path 510" d="M93.893,182H91.964a.964.964,0,1,0,0,1.929h1.929a.964.964,0,1,0,0-1.929Zm0,0" transform="translate(-85.15 -170.299)" fill="#f6ac00"/>
      <path id="Path_511" data-name="Path 511" d="M93.893,242H91.964a.964.964,0,1,0,0,1.929h1.929a.964.964,0,1,0,0-1.929Zm0,0" transform="translate(-85.15 -226.442)" fill="#f6ac00"/>
      <path id="Path_512" data-name="Path 512" d="M93.893,302H91.964a.964.964,0,1,0,0,1.929h1.929a.964.964,0,1,0,0-1.929Zm0,0" transform="translate(-85.15 -282.584)" fill="#f6ac00"/>
      <path id="Path_513" data-name="Path 513" d="M212.964,183.929h1.929a.964.964,0,0,0,0-1.929h-1.929a.964.964,0,1,0,0,1.929Zm0,0" transform="translate(-198.37 -170.299)" fill="#f6ac00"/>
      <path id="Path_514" data-name="Path 514" d="M212.964,243.929h1.929a.964.964,0,0,0,0-1.929h-1.929a.964.964,0,1,0,0,1.929Zm0,0" transform="translate(-198.37 -226.442)" fill="#f6ac00"/>
      <path id="Path_515" data-name="Path 515" d="M93.893,362H91.964a.964.964,0,1,0,0,1.929h1.929a.964.964,0,1,0,0-1.929Zm0,0" transform="translate(-85.15 -338.727)" fill="#f6ac00"/>
      <path id="Path_516" data-name="Path 516" d="M332.964,183.929h1.929a.964.964,0,0,0,0-1.929h-1.929a.964.964,0,1,0,0,1.929Zm0,0" transform="translate(-310.655 -170.299)" fill="#f6ac00"/>
    </g>
  </g>
</svg>
