<svg xmlns="http://www.w3.org/2000/svg" width="38" height="38" viewBox="0 0 38 38">
  <g id="Group_558" data-name="Group 558" transform="translate(-5668 -5565)">
    <g id="announcement" transform="translate(5671 5568)">
      <path id="Path_500" data-name="Path 500" d="M29.584,0H2.851A2.854,2.854,0,0,0,0,2.851V29.584a2.854,2.854,0,0,0,2.851,2.851H29.584a2.854,2.854,0,0,0,2.851-2.851V2.851A2.854,2.854,0,0,0,29.584,0ZM1.9,2.851a.951.951,0,0,1,.95-.95h15.7L15.689,7.729H1.9ZM30.535,29.584a.951.951,0,0,1-.95.95H2.851a.951.951,0,0,1-.95-.95V9.629h14.38a.95.95,0,0,0,.853-.531l3.54-7.2h8.911a.951.951,0,0,1,.95.95Z" fill="#f6ac00"/>
      <ellipse id="Ellipse_109" data-name="Ellipse 109" cx="0.523" cy="1.045" rx="0.523" ry="1.045" transform="translate(5.227 4.239)" fill="#f6ac00"/>
      <circle id="Ellipse_110" data-name="Ellipse 110" cx="1.045" cy="1.045" r="1.045" transform="translate(8.363 4.239)" fill="#f6ac00"/>
      <ellipse id="Ellipse_111" data-name="Ellipse 111" cx="0.523" cy="1.045" rx="0.523" ry="1.045" transform="translate(12.545 4.239)" fill="#f6ac00"/>
      <path id="Path_501" data-name="Path 501" d="M76.251,190.073a.95.95,0,0,0-1.036.206L75,190.5a11.211,11.211,0,0,1-7.98,3.305H64.484a3.484,3.484,0,0,0,0,6.968H64.8v4.118a.95.95,0,0,0,1.9,0V200.77h.317A11.211,11.211,0,0,1,75,204.075l.217.217a.95.95,0,0,0,1.622-.672v-12.67A.95.95,0,0,0,76.251,190.073ZM62.9,197.286a1.586,1.586,0,0,1,1.584-1.584h1.584v3.167H64.484A1.586,1.586,0,0,1,62.9,197.286Zm12.036,4.225a13.206,13.206,0,0,0-6.968-2.608v-3.235a13.206,13.206,0,0,0,6.968-2.608Z" transform="translate(-57.136 -177.964)" fill="#f6ac00"/>
      <path id="Path_502" data-name="Path 502" d="M345.049,247.852A.95.95,0,0,0,343.7,249.2a2.854,2.854,0,0,1,0,4.032.95.95,0,1,0,1.344,1.344A4.757,4.757,0,0,0,345.049,247.852Z" transform="translate(-321.671 -231.89)" fill="#f6ac00"/>
      <path id="Path_503" data-name="Path 503" d="M386.131,205.425a.95.95,0,0,0,0,1.344,6.652,6.652,0,0,1,0,9.407.95.95,0,1,0,1.344,1.344,8.562,8.562,0,0,0,0-12.095A.95.95,0,0,0,386.131,205.425Z" transform="translate(-361.409 -192.151)" fill="#f6ac00"/>
    </g>
    <rect id="Rectangle_359" data-name="Rectangle 359" width="38" height="38" transform="translate(5668 5565)" fill="none"/>
  </g>
</svg>
