<svg xmlns="http://www.w3.org/2000/svg" width="37.57" height="37.571" viewBox="0 0 37.57 37.571">
  <g id="idea" transform="translate(0.15 0.15)">
    <g id="Group_293" data-name="Group 293" transform="translate(7.765 7.765)">
      <path id="Path_490" data-name="Path 490" d="M18.2,34.506H13.541a2.521,2.521,0,0,1-2.329-2.8V28.449a5.393,5.393,0,0,0-2.019-4.038A10.735,10.735,0,0,1,5,15.715,11.052,11.052,0,0,1,15.715,5,10.914,10.914,0,0,1,23.48,8.106a11.055,11.055,0,0,1,3.261,7.765A10.444,10.444,0,0,1,22.7,24.256,5.67,5.67,0,0,0,20.529,28.6v3.572A2.388,2.388,0,0,1,18.2,34.506ZM15.871,6.553a9.525,9.525,0,0,0-9.318,9.162,9.128,9.128,0,0,0,3.572,7.454,6.767,6.767,0,0,1,2.64,5.28v3.261c0,.311,0,1.242.776,1.242H18.2a.734.734,0,0,0,.776-.776V28.6a7.547,7.547,0,0,1,2.8-5.591,9.055,9.055,0,0,0,3.416-7.144,9.283,9.283,0,0,0-2.8-6.678,9.154,9.154,0,0,0-6.522-2.64Z" transform="translate(-5 -5)" fill="#f6ac00" stroke="#f6ac00" stroke-width="0.3"/>
    </g>
    <g id="Group_294" data-name="Group 294" transform="translate(13.976 31.059)">
      <path id="Path_491" data-name="Path 491" d="M17.541,21.553H9.776a.776.776,0,1,1,0-1.553h7.765a.776.776,0,1,1,0,1.553Z" transform="translate(-9 -20)" fill="#f6ac00" stroke="#f6ac00" stroke-width="0.3"/>
    </g>
    <g id="Group_295" data-name="Group 295" transform="translate(17.859)">
      <path id="Path_492" data-name="Path 492" d="M12.276,4.659a.734.734,0,0,1-.776-.776V.776a.776.776,0,0,1,1.553,0V3.882A.734.734,0,0,1,12.276,4.659Z" transform="translate(-11.5)" fill="#f6ac00" stroke="#f6ac00" stroke-width="0.3"/>
    </g>
    <g id="Group_296" data-name="Group 296" transform="translate(28.186 5.358)">
      <path id="Path_493" data-name="Path 493" d="M19,7.1a.934.934,0,0,1-.621-.155.751.751,0,0,1,0-1.087l2.174-2.174A.769.769,0,1,1,21.644,4.77L19.47,6.944A1.564,1.564,0,0,1,19,7.1Z" transform="translate(-18.15 -3.45)" fill="#f6ac00" stroke="#f6ac00" stroke-width="0.3"/>
    </g>
    <g id="Group_297" data-name="Group 297" transform="translate(32.612 17.859)">
      <path id="Path_494" data-name="Path 494" d="M24.882,13.053H21.776a.776.776,0,1,1,0-1.553h3.106a.776.776,0,0,1,0,1.553Z" transform="translate(-21 -11.5)" fill="#f6ac00" stroke="#f6ac00" stroke-width="0.3"/>
    </g>
    <g id="Group_298" data-name="Group 298" transform="translate(28.186 28.341)">
      <path id="Path_495" data-name="Path 495" d="M21.178,21.9a.934.934,0,0,1-.621-.155L18.383,19.57a.769.769,0,0,1,1.087-1.087l2.174,2.174a.751.751,0,0,1,0,1.087c0,.155-.155.155-.466.155Z" transform="translate(-18.15 -18.25)" fill="#f6ac00" stroke="#f6ac00" stroke-width="0.3"/>
    </g>
    <g id="Group_299" data-name="Group 299" transform="translate(5.202 28.341)">
      <path id="Path_496" data-name="Path 496" d="M4.2,21.9a.934.934,0,0,1-.621-.155.751.751,0,0,1,0-1.087l2.174-2.174A.769.769,0,0,1,6.844,19.57L4.67,21.744A.57.57,0,0,1,4.2,21.9Z" transform="translate(-3.35 -18.25)" fill="#f6ac00" stroke="#f6ac00" stroke-width="0.3"/>
    </g>
    <g id="Group_300" data-name="Group 300" transform="translate(0 17.859)">
      <path id="Path_497" data-name="Path 497" d="M3.882,13.053H.776a.776.776,0,0,1,0-1.553H3.882a.776.776,0,0,1,0,1.553Z" transform="translate(0 -11.5)" fill="#f6ac00" stroke="#f6ac00" stroke-width="0.3"/>
    </g>
    <g id="Group_301" data-name="Group 301" transform="translate(5.202 5.202)">
      <path id="Path_498" data-name="Path 498" d="M6.378,7.155A.934.934,0,0,1,5.757,7L3.583,4.67A.769.769,0,1,1,4.67,3.583L6.844,5.757a.751.751,0,0,1,0,1.087c-.155.155-.311.311-.466.311Z" transform="translate(-3.35 -3.35)" fill="#f6ac00" stroke="#f6ac00" stroke-width="0.3"/>
    </g>
    <g id="Group_302" data-name="Group 302" transform="translate(17.859 11.647)">
      <path id="Path_499" data-name="Path 499" d="M18.488,15.265a.734.734,0,0,1-.776-.776,5.5,5.5,0,0,0-5.435-5.435.734.734,0,0,1-.776-.776.734.734,0,0,1,.776-.776,6.959,6.959,0,0,1,6.988,6.988A.734.734,0,0,1,18.488,15.265Z" transform="translate(-11.5 -7.5)" fill="#f6ac00" stroke="#f6ac00" stroke-width="0.3"/>
    </g>
  </g>
</svg>
