<svg xmlns="http://www.w3.org/2000/svg" width="41.27" height="35.332" viewBox="0 0 41.27 35.332">
  <g id="leaf" transform="translate(0 -36.834)">
    <g id="Group_182" data-name="Group 182" transform="translate(0 36.834)">
      <g id="Group_181" data-name="Group 181" transform="translate(0 0)">
        <path id="Path_349" data-name="Path 349" d="M41.113,57.4c0-.025,0-.049-.007-.074L39.037,42.933a.806.806,0,0,0-1.1-.633l-9.52,3.827a.806.806,0,1,0,.6,1.5l8.567-3.444L39.5,57.46a.808.808,0,0,0,.011.113,10.755,10.755,0,0,1-16,11.079c-.017-.01-.035-.018-.053-.027a14.6,14.6,0,0,0,1.508-1.318L34.4,64.779a.806.806,0,0,0-.417-1.557l-7.261,1.946a14.6,14.6,0,0,0,1.849-3.9l6.478-1.736a.806.806,0,0,0-.417-1.557L29.86,59.255l1.793-3.1,3.788-1.015a.806.806,0,0,0-.417-1.557l-2.231.6L34.508,51.2a.806.806,0,0,0-1.4-.806L31.4,53.369l-.6-2.231a.806.806,0,1,0-1.557.417l1.015,3.788L29.208,57.16a14.558,14.558,0,0,0-9.361-13.738l-.015-.007-3.648-1.48a.806.806,0,0,0-.606,1.494L19.192,44.9l.05.021a12.96,12.96,0,0,1,2.525,22.926L20.415,65.5l2.933-10.946a.806.806,0,1,0-1.557-.417l-2.516,9.389L16.29,58.356l2.035-7.594a.806.806,0,1,0-1.557-.417L15.15,56.381,12.8,52.307l1.225-4.573a.806.806,0,1,0-1.557-.417l-.808,3.016-2.229-3.86a.806.806,0,0,0-1.4.806l2.229,3.86L7.245,50.33a.806.806,0,0,0-.417,1.557L11.4,53.113l2.353,4.075L7.718,55.57A.806.806,0,0,0,7.3,57.128l7.594,2.035,2.985,5.169L8.49,61.816a.806.806,0,0,0-.417,1.557l10.946,2.933,1.353,2.343A12.951,12.951,0,0,1,1.794,54.914a.782.782,0,0,0,.011-.12l2.3-16.02,5.34,2.167a.806.806,0,0,0,.606-1.494L3.759,36.893a.806.806,0,0,0-1.1.632L.194,54.668a.8.8,0,0,0-.007.081,14.579,14.579,0,0,0,20.992,15.3l.991,1.716a.806.806,0,1,0,1.4-.806L23.2,70.32a12.323,12.323,0,0,0,5.69,1.4A12.466,12.466,0,0,0,32.1,71.3,12.343,12.343,0,0,0,41.113,57.4Z" transform="translate(0 -36.834)" fill="#f6ac00"/>
      </g>
    </g>
    <g id="Group_184" data-name="Group 184" transform="translate(11.944 40.606)">
      <g id="Group_183" data-name="Group 183" transform="translate(0 0)">
        <path id="Path_350" data-name="Path 350" d="M149.563,83.867a.807.807,0,1,0,.236.57A.812.812,0,0,0,149.563,83.867Z" transform="translate(-148.187 -83.631)" fill="#f6ac00"/>
      </g>
    </g>
    <g id="Group_186" data-name="Group 186" transform="translate(34.316 47.581)">
      <g id="Group_185" data-name="Group 185">
        <path id="Path_351" data-name="Path 351" d="M427.193,170.5l0-.007a.806.806,0,0,0-1.3.947l0,.007a.806.806,0,1,0,1.3-.947Z" transform="translate(-425.73 -170.16)" fill="#f6ac00"/>
      </g>
    </g>
  </g>
</svg>
